<?xml version="1.0" encoding="UTF-8"?>
<svg width="20px" height="20px" viewBox="0 0 20 20" version="1.1" xmlns="http://www.w3.org/2000/svg" xmlns:xlink="http://www.w3.org/1999/xlink">
    <title>icon/search</title>
    <g id="Page-1" stroke="none" stroke-width="1" fill="none" fill-rule="evenodd">
        <g id="Nuxalk-Language---Global-Search-Modal" transform="translate(-275.000000, -149.000000)" fill="#3B3A45" fill-rule="nonzero">
            <g id="Menu" transform="translate(275.000000, 128.000000)">
                <g id="icon/search" transform="translate(0.000000, 21.000000)">
                    <path d="M19.691358,18.1069959 L14.7805213,13.1961591 C17.2496571,9.98628258 17.0027435,5.34979424 14.0397805,2.41426612 C12.4211248,0.795610425 10.3360768,0 8.22359396,0 C6.11111111,0 4.0260631,0.795610425 2.40740741,2.41426612 C-0.802469136,5.62414266 -0.802469136,10.8367627 2.40740741,14.0466392 C4.0260631,15.6652949 6.11111111,16.4609053 8.22359396,16.4609053 C9.97942387,16.4609053 11.7352538,15.9122085 13.1893004,14.78738 L18.127572,19.6707819 C18.3470508,19.8902606 18.6213992,20 18.9231824,20 C19.1975309,20 19.4993141,19.8902606 19.7187929,19.6707819 C20.1303155,19.2592593 20.1303155,18.5459534 19.691358,18.1069959 Z M8.25102881,14.2386831 C6.63237311,14.2386831 5.15089163,13.6076818 3.99862826,12.4828532 C1.66666667,10.1508916 1.66666667,6.33744856 3.99862826,3.97805213 C5.12345679,2.85322359 6.63237311,2.22222222 8.25102881,2.22222222 C9.8696845,2.22222222 11.351166,2.85322359 12.5034294,3.97805213 C13.6556927,5.10288066 14.2592593,6.61179698 14.2592593,8.23045267 C14.2592593,9.84910837 13.6282579,11.3305898 12.5034294,12.4828532 C11.3786008,13.6351166 9.84224966,14.2386831 8.25102881,14.2386831 Z" id="Shape"></path>
                </g>
            </g>
        </g>
    </g>
</svg>
